<svg id="visual" viewBox="0 0 1920 600" width="1920" height="600" xmlns="http://www.w3.org/2000/svg" xmlns:xlink="http://www.w3.org/1999/xlink" version="1.1"><rect x="0" y="0" width="1920" height="600" fill="#081F0F"></rect><path d="M0 329L13.8 328.2C27.7 327.3 55.3 325.7 83.2 328.5C111 331.3 139 338.7 166.8 337.3C194.7 336 222.3 326 250.2 318.5C278 311 306 306 333.8 299.3C361.7 292.7 389.3 284.3 417.2 292.3C445 300.3 473 324.7 500.8 324.8C528.7 325 556.3 301 584.2 291.8C612 282.7 640 288.3 667.8 291.7C695.7 295 723.3 296 751.2 292C779 288 807 279 834.8 278C862.7 277 890.3 284 918.2 294.2C946 304.3 974 317.7 1001.8 316.7C1029.7 315.7 1057.3 300.3 1085.2 295.5C1113 290.7 1141 296.3 1168.8 305.7C1196.7 315 1224.3 328 1252.2 326.3C1280 324.7 1308 308.3 1335.8 307.2C1363.7 306 1391.3 320 1419.2 325.5C1447 331 1475 328 1502.8 321.7C1530.7 315.3 1558.3 305.7 1586.2 307C1614 308.3 1642 320.7 1669.8 317.8C1697.7 315 1725.3 297 1753.2 287.8C1781 278.7 1809 278.3 1836.8 283.3C1864.7 288.3 1892.3 298.7 1906.2 303.8L1920 309L1920 601L1906.2 601C1892.3 601 1864.7 601 1836.8 601C1809 601 1781 601 1753.2 601C1725.3 601 1697.7 601 1669.8 601C1642 601 1614 601 1586.2 601C1558.3 601 1530.7 601 1502.8 601C1475 601 1447 601 1419.2 601C1391.3 601 1363.7 601 1335.8 601C1308 601 1280 601 1252.2 601C1224.3 601 1196.7 601 1168.8 601C1141 601 1113 601 1085.2 601C1057.3 601 1029.7 601 1001.8 601C974 601 946 601 918.2 601C890.3 601 862.7 601 834.8 601C807 601 779 601 751.2 601C723.3 601 695.7 601 667.8 601C640 601 612 601 584.2 601C556.3 601 528.7 601 500.8 601C473 601 445 601 417.2 601C389.3 601 361.7 601 333.8 601C306 601 278 601 250.2 601C222.3 601 194.7 601 166.8 601C139 601 111 601 83.2 601C55.3 601 27.7 601 13.8 601L0 601Z" fill="#37c25e"></path><path d="M0 389L13.8 376.7C27.7 364.3 55.3 339.7 83.2 330.5C111 321.3 139 327.7 166.8 337.7C194.7 347.7 222.3 361.3 250.2 360.7C278 360 306 345 333.8 343.3C361.7 341.7 389.3 353.3 417.2 361.5C445 369.7 473 374.3 500.8 373.7C528.7 373 556.3 367 584.2 362.8C612 358.7 640 356.3 667.8 352.7C695.7 349 723.3 344 751.2 345.5C779 347 807 355 834.8 356.8C862.7 358.7 890.3 354.3 918.2 355.5C946 356.7 974 363.3 1001.8 366.5C1029.7 369.7 1057.3 369.3 1085.2 367.7C1113 366 1141 363 1168.8 353.8C1196.7 344.7 1224.3 329.3 1252.2 322C1280 314.7 1308 315.3 1335.8 326.2C1363.7 337 1391.3 358 1419.2 360.7C1447 363.3 1475 347.7 1502.8 336.7C1530.7 325.7 1558.3 319.3 1586.2 323.2C1614 327 1642 341 1669.8 351C1697.7 361 1725.3 367 1753.2 372.5C1781 378 1809 383 1836.8 378.2C1864.7 373.3 1892.3 358.7 1906.2 351.3L1920 344L1920 601L1906.2 601C1892.3 601 1864.7 601 1836.8 601C1809 601 1781 601 1753.2 601C1725.3 601 1697.7 601 1669.8 601C1642 601 1614 601 1586.2 601C1558.3 601 1530.7 601 1502.8 601C1475 601 1447 601 1419.2 601C1391.3 601 1363.7 601 1335.8 601C1308 601 1280 601 1252.2 601C1224.3 601 1196.7 601 1168.8 601C1141 601 1113 601 1085.2 601C1057.3 601 1029.7 601 1001.8 601C974 601 946 601 918.2 601C890.3 601 862.7 601 834.8 601C807 601 779 601 751.2 601C723.3 601 695.7 601 667.8 601C640 601 612 601 584.2 601C556.3 601 528.7 601 500.8 601C473 601 445 601 417.2 601C389.3 601 361.7 601 333.8 601C306 601 278 601 250.2 601C222.3 601 194.7 601 166.8 601C139 601 111 601 83.2 601C55.3 601 27.7 601 13.8 601L0 601Z" fill="#00a882"></path><path d="M0 375L13.8 381.5C27.7 388 55.3 401 83.2 410C111 419 139 424 166.8 424.2C194.7 424.3 222.3 419.7 250.2 418.3C278 417 306 419 333.8 417.7C361.7 416.3 389.3 411.7 417.2 400.7C445 389.7 473 372.3 500.8 370.8C528.7 369.3 556.3 383.7 584.2 393.7C612 403.7 640 409.3 667.8 412.5C695.7 415.7 723.3 416.3 751.2 415.3C779 414.3 807 411.7 834.8 412.8C862.7 414 890.3 419 918.2 411.7C946 404.3 974 384.7 1001.8 373.2C1029.7 361.7 1057.3 358.3 1085.2 359C1113 359.7 1141 364.3 1168.8 372.5C1196.7 380.7 1224.3 392.3 1252.2 393.5C1280 394.7 1308 385.3 1335.8 388.3C1363.7 391.3 1391.3 406.7 1419.2 412C1447 417.3 1475 412.7 1502.8 410C1530.7 407.3 1558.3 406.7 1586.2 404.8C1614 403 1642 400 1669.8 394.8C1697.7 389.7 1725.3 382.3 1753.2 381.5C1781 380.7 1809 386.3 1836.8 387.2C1864.7 388 1892.3 384 1906.2 382L1920 380L1920 601L1906.2 601C1892.3 601 1864.7 601 1836.8 601C1809 601 1781 601 1753.2 601C1725.3 601 1697.7 601 1669.8 601C1642 601 1614 601 1586.2 601C1558.3 601 1530.7 601 1502.8 601C1475 601 1447 601 1419.2 601C1391.3 601 1363.7 601 1335.8 601C1308 601 1280 601 1252.2 601C1224.3 601 1196.7 601 1168.8 601C1141 601 1113 601 1085.2 601C1057.3 601 1029.7 601 1001.8 601C974 601 946 601 918.2 601C890.3 601 862.7 601 834.8 601C807 601 779 601 751.2 601C723.3 601 695.7 601 667.8 601C640 601 612 601 584.2 601C556.3 601 528.7 601 500.8 601C473 601 445 601 417.2 601C389.3 601 361.7 601 333.8 601C306 601 278 601 250.2 601C222.3 601 194.7 601 166.8 601C139 601 111 601 83.2 601C55.3 601 27.7 601 13.8 601L0 601Z" fill="#008b8e"></path><path d="M0 413L13.8 419.3C27.7 425.7 55.3 438.3 83.2 436.5C111 434.7 139 418.3 166.8 414C194.7 409.7 222.3 417.3 250.2 424C278 430.7 306 436.3 333.8 438.7C361.7 441 389.3 440 417.2 440.8C445 441.7 473 444.3 500.8 444C528.7 443.7 556.3 440.3 584.2 437.3C612 434.3 640 431.7 667.8 433.8C695.7 436 723.3 443 751.2 446.5C779 450 807 450 834.8 450.3C862.7 450.7 890.3 451.3 918.2 447.2C946 443 974 434 1001.8 435.8C1029.7 437.7 1057.3 450.3 1085.2 453C1113 455.7 1141 448.3 1168.8 442.8C1196.7 437.3 1224.3 433.7 1252.2 432.7C1280 431.7 1308 433.3 1335.8 436.5C1363.7 439.7 1391.3 444.3 1419.2 447.2C1447 450 1475 451 1502.8 444.7C1530.7 438.3 1558.3 424.7 1586.2 425.2C1614 425.7 1642 440.3 1669.8 447.8C1697.7 455.3 1725.3 455.7 1753.2 448.8C1781 442 1809 428 1836.8 422.8C1864.7 417.7 1892.3 421.3 1906.2 423.2L1920 425L1920 601L1906.2 601C1892.3 601 1864.7 601 1836.8 601C1809 601 1781 601 1753.2 601C1725.3 601 1697.7 601 1669.8 601C1642 601 1614 601 1586.2 601C1558.3 601 1530.7 601 1502.8 601C1475 601 1447 601 1419.2 601C1391.3 601 1363.7 601 1335.8 601C1308 601 1280 601 1252.2 601C1224.3 601 1196.7 601 1168.8 601C1141 601 1113 601 1085.2 601C1057.3 601 1029.7 601 1001.8 601C974 601 946 601 918.2 601C890.3 601 862.7 601 834.8 601C807 601 779 601 751.2 601C723.3 601 695.7 601 667.8 601C640 601 612 601 584.2 601C556.3 601 528.7 601 500.8 601C473 601 445 601 417.2 601C389.3 601 361.7 601 333.8 601C306 601 278 601 250.2 601C222.3 601 194.7 601 166.8 601C139 601 111 601 83.2 601C55.3 601 27.7 601 13.8 601L0 601Z" fill="#006c80"></path><path d="M0 477L13.8 480.3C27.7 483.7 55.3 490.3 83.2 488C111 485.7 139 474.3 166.8 475C194.7 475.7 222.3 488.3 250.2 494.5C278 500.7 306 500.3 333.8 491.5C361.7 482.7 389.3 465.3 417.2 457C445 448.7 473 449.3 500.8 452.7C528.7 456 556.3 462 584.2 462.3C612 462.7 640 457.3 667.8 455C695.7 452.7 723.3 453.3 751.2 454.7C779 456 807 458 834.8 459C862.7 460 890.3 460 918.2 467.5C946 475 974 490 1001.8 497.3C1029.7 504.7 1057.3 504.3 1085.2 494.7C1113 485 1141 466 1168.8 457C1196.7 448 1224.3 449 1252.2 453.3C1280 457.7 1308 465.3 1335.8 473.7C1363.7 482 1391.3 491 1419.2 490.5C1447 490 1475 480 1502.8 471.3C1530.7 462.7 1558.3 455.3 1586.2 459.3C1614 463.3 1642 478.7 1669.8 484.5C1697.7 490.3 1725.3 486.7 1753.2 479.7C1781 472.7 1809 462.3 1836.8 459C1864.7 455.7 1892.3 459.3 1906.2 461.2L1920 463L1920 601L1906.2 601C1892.3 601 1864.7 601 1836.8 601C1809 601 1781 601 1753.2 601C1725.3 601 1697.7 601 1669.8 601C1642 601 1614 601 1586.2 601C1558.3 601 1530.7 601 1502.8 601C1475 601 1447 601 1419.2 601C1391.3 601 1363.7 601 1335.8 601C1308 601 1280 601 1252.2 601C1224.3 601 1196.7 601 1168.8 601C1141 601 1113 601 1085.2 601C1057.3 601 1029.7 601 1001.8 601C974 601 946 601 918.2 601C890.3 601 862.7 601 834.8 601C807 601 779 601 751.2 601C723.3 601 695.7 601 667.8 601C640 601 612 601 584.2 601C556.3 601 528.7 601 500.8 601C473 601 445 601 417.2 601C389.3 601 361.7 601 333.8 601C306 601 278 601 250.2 601C222.3 601 194.7 601 166.8 601C139 601 111 601 83.2 601C55.3 601 27.7 601 13.8 601L0 601Z" fill="#174e65"></path><path d="M0 495L13.8 496.7C27.7 498.3 55.3 501.7 83.2 507.2C111 512.7 139 520.3 166.8 518C194.7 515.7 222.3 503.3 250.2 500.5C278 497.7 306 504.3 333.8 512.5C361.7 520.7 389.3 530.3 417.2 527.7C445 525 473 510 500.8 505C528.7 500 556.3 505 584.2 510.2C612 515.3 640 520.7 667.8 524.2C695.7 527.7 723.3 529.3 751.2 523.2C779 517 807 503 834.8 498.3C862.7 493.7 890.3 498.3 918.2 503.3C946 508.3 974 513.7 1001.8 511.7C1029.7 509.7 1057.3 500.3 1085.2 501.5C1113 502.7 1141 514.3 1168.8 519.5C1196.7 524.7 1224.3 523.3 1252.2 525C1280 526.7 1308 531.3 1335.8 531C1363.7 530.7 1391.3 525.3 1419.2 519C1447 512.7 1475 505.3 1502.8 507.7C1530.7 510 1558.3 522 1586.2 523.3C1614 524.7 1642 515.3 1669.8 516.5C1697.7 517.7 1725.3 529.3 1753.2 526.8C1781 524.3 1809 507.7 1836.8 507.8C1864.7 508 1892.3 525 1906.2 533.5L1920 542L1920 601L1906.2 601C1892.3 601 1864.7 601 1836.8 601C1809 601 1781 601 1753.2 601C1725.3 601 1697.7 601 1669.8 601C1642 601 1614 601 1586.2 601C1558.3 601 1530.7 601 1502.8 601C1475 601 1447 601 1419.2 601C1391.3 601 1363.7 601 1335.8 601C1308 601 1280 601 1252.2 601C1224.3 601 1196.7 601 1168.8 601C1141 601 1113 601 1085.2 601C1057.3 601 1029.7 601 1001.8 601C974 601 946 601 918.2 601C890.3 601 862.7 601 834.8 601C807 601 779 601 751.2 601C723.3 601 695.7 601 667.8 601C640 601 612 601 584.2 601C556.3 601 528.7 601 500.8 601C473 601 445 601 417.2 601C389.3 601 361.7 601 333.8 601C306 601 278 601 250.2 601C222.3 601 194.7 601 166.8 601C139 601 111 601 83.2 601C55.3 601 27.7 601 13.8 601L0 601Z" fill="#1c3346"></path><path d="M0 540L13.8 543.8C27.7 547.7 55.3 555.3 83.2 558.2C111 561 139 559 166.8 554.7C194.7 550.3 222.3 543.7 250.2 539.7C278 535.7 306 534.3 333.8 541.5C361.7 548.7 389.3 564.3 417.2 564.8C445 565.3 473 550.7 500.8 548.5C528.7 546.3 556.3 556.7 584.2 556.3C612 556 640 545 667.8 544C695.7 543 723.3 552 751.2 558.3C779 564.7 807 568.3 834.8 570C862.7 571.7 890.3 571.3 918.2 565C946 558.7 974 546.3 1001.8 540C1029.7 533.7 1057.3 533.3 1085.2 539.8C1113 546.3 1141 559.7 1168.8 561.3C1196.7 563 1224.3 553 1252.2 549.8C1280 546.7 1308 550.3 1335.8 549C1363.7 547.7 1391.3 541.3 1419.2 545.2C1447 549 1475 563 1502.8 567.8C1530.7 572.7 1558.3 568.3 1586.2 561.8C1614 555.3 1642 546.7 1669.8 541.2C1697.7 535.7 1725.3 533.3 1753.2 533.7C1781 534 1809 537 1836.8 541C1864.7 545 1892.3 550 1906.2 552.5L1920 555L1920 601L1906.2 601C1892.3 601 1864.7 601 1836.8 601C1809 601 1781 601 1753.2 601C1725.3 601 1697.7 601 1669.8 601C1642 601 1614 601 1586.2 601C1558.3 601 1530.7 601 1502.8 601C1475 601 1447 601 1419.2 601C1391.3 601 1363.7 601 1335.8 601C1308 601 1280 601 1252.2 601C1224.3 601 1196.7 601 1168.8 601C1141 601 1113 601 1085.2 601C1057.3 601 1029.7 601 1001.8 601C974 601 946 601 918.2 601C890.3 601 862.7 601 834.8 601C807 601 779 601 751.2 601C723.3 601 695.7 601 667.8 601C640 601 612 601 584.2 601C556.3 601 528.7 601 500.8 601C473 601 445 601 417.2 601C389.3 601 361.7 601 333.8 601C306 601 278 601 250.2 601C222.3 601 194.7 601 166.8 601C139 601 111 601 83.2 601C55.3 601 27.7 601 13.8 601L0 601Z" fill="#151a27"></path></svg>